<mxfile host="Electron" agent="Mozilla/5.0 (X11; Linux x86_64) AppleWebKit/537.36 (KHTML, like Gecko) draw.io/24.7.17 Chrome/128.0.6613.36 Electron/32.0.1 Safari/537.36" version="24.7.17">
  <diagram name="Page-1" id="GNwzKLh38qullAWm0XS6">
    <mxGraphModel dx="1755" dy="1049" grid="1" gridSize="10" guides="1" tooltips="1" connect="1" arrows="1" fold="1" page="1" pageScale="1" pageWidth="850" pageHeight="1100" math="1" shadow="0">
      <root>
        <mxCell id="0" />
        <mxCell id="1" parent="0" />
        <mxCell id="eMgMhVM8UDw18_eJGZku-1" value="" style="pointerEvents=1;verticalLabelPosition=bottom;shadow=0;dashed=0;align=center;html=1;verticalAlign=top;shape=mxgraph.electrical.capacitors.capacitor_1;strokeWidth=4;" parent="1" vertex="1">
          <mxGeometry x="260" y="130" width="100" height="60" as="geometry" />
        </mxCell>
        <mxCell id="eMgMhVM8UDw18_eJGZku-2" value="" style="pointerEvents=1;verticalLabelPosition=bottom;shadow=0;dashed=0;align=center;html=1;verticalAlign=top;shape=mxgraph.electrical.capacitors.capacitor_1;strokeWidth=4;" parent="1" vertex="1">
          <mxGeometry x="480" y="130" width="100" height="60" as="geometry" />
        </mxCell>
        <mxCell id="eMgMhVM8UDw18_eJGZku-3" value="" style="pointerEvents=1;verticalLabelPosition=bottom;shadow=0;dashed=0;align=center;html=1;verticalAlign=top;shape=mxgraph.electrical.capacitors.capacitor_1;strokeWidth=4;" parent="1" vertex="1">
          <mxGeometry x="370" y="250" width="100" height="60" as="geometry" />
        </mxCell>
        <mxCell id="eMgMhVM8UDw18_eJGZku-4" value="" style="endArrow=none;html=1;rounded=0;entryX=0;entryY=0.5;entryDx=0;entryDy=0;entryPerimeter=0;exitX=1;exitY=0.5;exitDx=0;exitDy=0;exitPerimeter=0;strokeWidth=4;" parent="1" source="eMgMhVM8UDw18_eJGZku-1" target="eMgMhVM8UDw18_eJGZku-2" edge="1">
          <mxGeometry width="50" height="50" relative="1" as="geometry">
            <mxPoint x="370" y="160" as="sourcePoint" />
            <mxPoint x="420" y="110" as="targetPoint" />
          </mxGeometry>
        </mxCell>
        <mxCell id="eMgMhVM8UDw18_eJGZku-5" value="" style="endArrow=none;html=1;rounded=0;entryX=0;entryY=0.5;entryDx=0;entryDy=0;entryPerimeter=0;exitX=0.9;exitY=0.5;exitDx=0;exitDy=0;exitPerimeter=0;strokeWidth=4;" parent="1" edge="1">
          <mxGeometry width="50" height="50" relative="1" as="geometry">
            <mxPoint x="470" y="279.97" as="sourcePoint" />
            <mxPoint x="600" y="279.97" as="targetPoint" />
          </mxGeometry>
        </mxCell>
        <mxCell id="eMgMhVM8UDw18_eJGZku-6" value="" style="endArrow=none;html=1;rounded=0;entryX=0;entryY=0.5;entryDx=0;entryDy=0;entryPerimeter=0;exitX=0.9;exitY=0.5;exitDx=0;exitDy=0;exitPerimeter=0;strokeWidth=4;" parent="1" edge="1">
          <mxGeometry width="50" height="50" relative="1" as="geometry">
            <mxPoint x="240" y="279.94" as="sourcePoint" />
            <mxPoint x="370" y="279.94" as="targetPoint" />
          </mxGeometry>
        </mxCell>
        <mxCell id="eMgMhVM8UDw18_eJGZku-7" value="" style="endArrow=none;html=1;rounded=0;strokeWidth=4;" parent="1" edge="1">
          <mxGeometry width="50" height="50" relative="1" as="geometry">
            <mxPoint x="240" y="280" as="sourcePoint" />
            <mxPoint x="240" y="160" as="targetPoint" />
          </mxGeometry>
        </mxCell>
        <mxCell id="eMgMhVM8UDw18_eJGZku-8" value="" style="endArrow=none;html=1;rounded=0;strokeWidth=4;" parent="1" edge="1">
          <mxGeometry width="50" height="50" relative="1" as="geometry">
            <mxPoint x="600" y="280" as="sourcePoint" />
            <mxPoint x="600" y="160" as="targetPoint" />
          </mxGeometry>
        </mxCell>
        <mxCell id="eMgMhVM8UDw18_eJGZku-9" value="" style="endArrow=none;html=1;rounded=0;entryX=0;entryY=0.5;entryDx=0;entryDy=0;entryPerimeter=0;strokeWidth=4;" parent="1" target="eMgMhVM8UDw18_eJGZku-1" edge="1">
          <mxGeometry width="50" height="50" relative="1" as="geometry">
            <mxPoint x="240" y="160" as="sourcePoint" />
            <mxPoint x="300" y="110" as="targetPoint" />
          </mxGeometry>
        </mxCell>
        <mxCell id="eMgMhVM8UDw18_eJGZku-10" value="" style="endArrow=none;html=1;rounded=0;entryX=0;entryY=0.5;entryDx=0;entryDy=0;entryPerimeter=0;strokeWidth=4;" parent="1" edge="1">
          <mxGeometry width="50" height="50" relative="1" as="geometry">
            <mxPoint x="580" y="159.8" as="sourcePoint" />
            <mxPoint x="600" y="159.8" as="targetPoint" />
          </mxGeometry>
        </mxCell>
        <mxCell id="eMgMhVM8UDw18_eJGZku-11" value="" style="endArrow=none;html=1;rounded=0;strokeWidth=4;" parent="1" source="eMgMhVM8UDw18_eJGZku-14" edge="1">
          <mxGeometry width="50" height="50" relative="1" as="geometry">
            <mxPoint x="419.9" y="160" as="sourcePoint" />
            <mxPoint x="419.9" y="120" as="targetPoint" />
          </mxGeometry>
        </mxCell>
        <mxCell id="eMgMhVM8UDw18_eJGZku-12" value="" style="endArrow=none;html=1;rounded=0;strokeWidth=4;" parent="1" edge="1">
          <mxGeometry width="50" height="50" relative="1" as="geometry">
            <mxPoint x="240" y="360" as="sourcePoint" />
            <mxPoint x="240" y="280" as="targetPoint" />
          </mxGeometry>
        </mxCell>
        <mxCell id="eMgMhVM8UDw18_eJGZku-13" value="" style="endArrow=none;html=1;rounded=0;strokeWidth=4;" parent="1" edge="1">
          <mxGeometry width="50" height="50" relative="1" as="geometry">
            <mxPoint x="600" y="360" as="sourcePoint" />
            <mxPoint x="600" y="280" as="targetPoint" />
          </mxGeometry>
        </mxCell>
        <mxCell id="eMgMhVM8UDw18_eJGZku-14" value="" style="shape=waypoint;sketch=0;fillStyle=solid;size=6;pointerEvents=1;points=[];fillColor=none;resizable=0;rotatable=0;perimeter=centerPerimeter;snapToPoint=1;strokeWidth=4;" parent="1" vertex="1">
          <mxGeometry x="409.9" y="150" width="20" height="20" as="geometry" />
        </mxCell>
        <mxCell id="eMgMhVM8UDw18_eJGZku-15" value="" style="shape=waypoint;sketch=0;fillStyle=solid;size=6;pointerEvents=1;points=[];fillColor=none;resizable=0;rotatable=0;perimeter=centerPerimeter;snapToPoint=1;strokeWidth=4;" parent="1" vertex="1">
          <mxGeometry x="230" y="270" width="20" height="20" as="geometry" />
        </mxCell>
        <mxCell id="eMgMhVM8UDw18_eJGZku-16" value="" style="shape=waypoint;sketch=0;fillStyle=solid;size=6;pointerEvents=1;points=[];fillColor=none;resizable=0;rotatable=0;perimeter=centerPerimeter;snapToPoint=1;strokeWidth=4;" parent="1" vertex="1">
          <mxGeometry x="590" y="270" width="20" height="20" as="geometry" />
        </mxCell>
        <mxCell id="eMgMhVM8UDw18_eJGZku-17" value="&lt;font style=&quot;font-size: 24px;&quot;&gt;$$C_0$$&lt;/font&gt;" style="text;html=1;align=center;verticalAlign=middle;whiteSpace=wrap;rounded=0;" parent="1" vertex="1">
          <mxGeometry x="280" y="200" width="60" height="30" as="geometry" />
        </mxCell>
        <mxCell id="eMgMhVM8UDw18_eJGZku-18" value="&lt;font style=&quot;font-size: 24px;&quot;&gt;$$C_0$$&lt;/font&gt;" style="text;html=1;align=center;verticalAlign=middle;whiteSpace=wrap;rounded=0;" parent="1" vertex="1">
          <mxGeometry x="500" y="200" width="60" height="30" as="geometry" />
        </mxCell>
        <mxCell id="eMgMhVM8UDw18_eJGZku-19" value="&lt;font style=&quot;font-size: 24px;&quot;&gt;$$C_1$$&lt;/font&gt;" style="text;html=1;align=center;verticalAlign=middle;whiteSpace=wrap;rounded=0;" parent="1" vertex="1">
          <mxGeometry x="390" y="320" width="60" height="30" as="geometry" />
        </mxCell>
        <mxCell id="eMgMhVM8UDw18_eJGZku-20" value="&lt;font style=&quot;font-size: 24px;&quot;&gt;$$V_{a0}$$&lt;/font&gt;" style="text;html=1;align=center;verticalAlign=middle;whiteSpace=wrap;rounded=0;" parent="1" vertex="1">
          <mxGeometry x="180" y="291" width="60" height="30" as="geometry" />
        </mxCell>
        <mxCell id="eMgMhVM8UDw18_eJGZku-21" value="&lt;font style=&quot;font-size: 24px;&quot;&gt;$$V_{CM}$$&lt;/font&gt;" style="text;html=1;align=center;verticalAlign=middle;whiteSpace=wrap;rounded=0;" parent="1" vertex="1">
          <mxGeometry x="420" y="90" width="60" height="30" as="geometry" />
        </mxCell>
        <mxCell id="eMgMhVM8UDw18_eJGZku-22" value="&lt;font style=&quot;font-size: 24px;&quot;&gt;$$V_{b0}$$&lt;/font&gt;" style="text;html=1;align=center;verticalAlign=middle;whiteSpace=wrap;rounded=0;" parent="1" vertex="1">
          <mxGeometry x="600" y="290" width="60" height="30" as="geometry" />
        </mxCell>
        <mxCell id="eMgMhVM8UDw18_eJGZku-45" value="" style="pointerEvents=1;verticalLabelPosition=bottom;shadow=0;dashed=0;align=center;html=1;verticalAlign=top;shape=mxgraph.electrical.signal_sources.source;aspect=fixed;points=[[0.5,0,0],[1,0.5,0],[0.5,1,0],[0,0.5,0]];elSignalType=dc3;strokeWidth=4;" parent="1" vertex="1">
          <mxGeometry x="220" y="360" width="40" height="40" as="geometry" />
        </mxCell>
        <mxCell id="eMgMhVM8UDw18_eJGZku-46" value="" style="pointerEvents=1;verticalLabelPosition=bottom;shadow=0;dashed=0;align=center;html=1;verticalAlign=top;shape=mxgraph.electrical.signal_sources.source;aspect=fixed;points=[[0.5,0,0],[1,0.5,0],[0.5,1,0],[0,0.5,0]];elSignalType=dc3;strokeWidth=4;" parent="1" vertex="1">
          <mxGeometry x="580" y="360" width="40" height="40" as="geometry" />
        </mxCell>
        <mxCell id="eMgMhVM8UDw18_eJGZku-48" value="" style="pointerEvents=1;verticalLabelPosition=bottom;shadow=0;dashed=0;align=center;html=1;verticalAlign=top;shape=mxgraph.electrical.signal_sources.signal_ground;strokeWidth=4;" parent="1" vertex="1">
          <mxGeometry x="585" y="440" width="30" height="30" as="geometry" />
        </mxCell>
        <mxCell id="eMgMhVM8UDw18_eJGZku-49" value="" style="endArrow=none;html=1;rounded=0;strokeWidth=4;" parent="1" edge="1">
          <mxGeometry width="50" height="50" relative="1" as="geometry">
            <mxPoint x="599.94" y="440" as="sourcePoint" />
            <mxPoint x="599.94" y="401" as="targetPoint" />
          </mxGeometry>
        </mxCell>
        <mxCell id="eMgMhVM8UDw18_eJGZku-50" value="" style="endArrow=none;html=1;rounded=0;strokeWidth=4;" parent="1" source="eMgMhVM8UDw18_eJGZku-47" edge="1">
          <mxGeometry width="50" height="50" relative="1" as="geometry">
            <mxPoint x="239.70999999999998" y="440" as="sourcePoint" />
            <mxPoint x="239.70999999999998" y="401" as="targetPoint" />
          </mxGeometry>
        </mxCell>
        <mxCell id="eMgMhVM8UDw18_eJGZku-51" value="" style="endArrow=none;html=1;rounded=0;strokeWidth=4;" parent="1" target="eMgMhVM8UDw18_eJGZku-47" edge="1">
          <mxGeometry width="50" height="50" relative="1" as="geometry">
            <mxPoint x="239.70999999999998" y="440" as="sourcePoint" />
            <mxPoint x="239.70999999999998" y="401" as="targetPoint" />
          </mxGeometry>
        </mxCell>
        <mxCell id="eMgMhVM8UDw18_eJGZku-47" value="" style="pointerEvents=1;verticalLabelPosition=bottom;shadow=0;dashed=0;align=center;html=1;verticalAlign=top;shape=mxgraph.electrical.signal_sources.signal_ground;strokeWidth=4;" parent="1" vertex="1">
          <mxGeometry x="225" y="440" width="30" height="30" as="geometry" />
        </mxCell>
        <mxCell id="eMgMhVM8UDw18_eJGZku-52" value="" style="pointerEvents=1;verticalLabelPosition=bottom;shadow=0;dashed=0;align=center;html=1;verticalAlign=top;shape=mxgraph.electrical.capacitors.capacitor_1;strokeWidth=4;" parent="1" vertex="1">
          <mxGeometry x="860" y="131" width="100" height="60" as="geometry" />
        </mxCell>
        <mxCell id="eMgMhVM8UDw18_eJGZku-53" value="" style="pointerEvents=1;verticalLabelPosition=bottom;shadow=0;dashed=0;align=center;html=1;verticalAlign=top;shape=mxgraph.electrical.capacitors.capacitor_1;strokeWidth=4;" parent="1" vertex="1">
          <mxGeometry x="1080" y="131" width="100" height="60" as="geometry" />
        </mxCell>
        <mxCell id="eMgMhVM8UDw18_eJGZku-54" value="" style="pointerEvents=1;verticalLabelPosition=bottom;shadow=0;dashed=0;align=center;html=1;verticalAlign=top;shape=mxgraph.electrical.capacitors.capacitor_1;strokeWidth=4;" parent="1" vertex="1">
          <mxGeometry x="970" y="251" width="100" height="60" as="geometry" />
        </mxCell>
        <mxCell id="eMgMhVM8UDw18_eJGZku-55" value="" style="endArrow=none;html=1;rounded=0;entryX=0;entryY=0.5;entryDx=0;entryDy=0;entryPerimeter=0;exitX=1;exitY=0.5;exitDx=0;exitDy=0;exitPerimeter=0;strokeWidth=4;" parent="1" source="eMgMhVM8UDw18_eJGZku-52" target="eMgMhVM8UDw18_eJGZku-53" edge="1">
          <mxGeometry width="50" height="50" relative="1" as="geometry">
            <mxPoint x="970" y="161" as="sourcePoint" />
            <mxPoint x="1020" y="111" as="targetPoint" />
          </mxGeometry>
        </mxCell>
        <mxCell id="eMgMhVM8UDw18_eJGZku-56" value="" style="endArrow=none;html=1;rounded=0;entryX=0;entryY=0.5;entryDx=0;entryDy=0;entryPerimeter=0;exitX=0.9;exitY=0.5;exitDx=0;exitDy=0;exitPerimeter=0;strokeWidth=4;" parent="1" edge="1">
          <mxGeometry width="50" height="50" relative="1" as="geometry">
            <mxPoint x="1070" y="280.97" as="sourcePoint" />
            <mxPoint x="1200" y="280.97" as="targetPoint" />
          </mxGeometry>
        </mxCell>
        <mxCell id="eMgMhVM8UDw18_eJGZku-57" value="" style="endArrow=none;html=1;rounded=0;entryX=0;entryY=0.5;entryDx=0;entryDy=0;entryPerimeter=0;exitX=0.9;exitY=0.5;exitDx=0;exitDy=0;exitPerimeter=0;strokeWidth=4;" parent="1" edge="1">
          <mxGeometry width="50" height="50" relative="1" as="geometry">
            <mxPoint x="840" y="280.94" as="sourcePoint" />
            <mxPoint x="970" y="280.94" as="targetPoint" />
          </mxGeometry>
        </mxCell>
        <mxCell id="eMgMhVM8UDw18_eJGZku-58" value="" style="endArrow=none;html=1;rounded=0;strokeWidth=4;" parent="1" edge="1">
          <mxGeometry width="50" height="50" relative="1" as="geometry">
            <mxPoint x="840" y="281" as="sourcePoint" />
            <mxPoint x="840" y="161" as="targetPoint" />
          </mxGeometry>
        </mxCell>
        <mxCell id="eMgMhVM8UDw18_eJGZku-59" value="" style="endArrow=none;html=1;rounded=0;strokeWidth=4;" parent="1" edge="1">
          <mxGeometry width="50" height="50" relative="1" as="geometry">
            <mxPoint x="1200" y="281" as="sourcePoint" />
            <mxPoint x="1200" y="161" as="targetPoint" />
          </mxGeometry>
        </mxCell>
        <mxCell id="eMgMhVM8UDw18_eJGZku-60" value="" style="endArrow=none;html=1;rounded=0;entryX=0;entryY=0.5;entryDx=0;entryDy=0;entryPerimeter=0;strokeWidth=4;" parent="1" target="eMgMhVM8UDw18_eJGZku-52" edge="1">
          <mxGeometry width="50" height="50" relative="1" as="geometry">
            <mxPoint x="840" y="161" as="sourcePoint" />
            <mxPoint x="900" y="111" as="targetPoint" />
          </mxGeometry>
        </mxCell>
        <mxCell id="eMgMhVM8UDw18_eJGZku-61" value="" style="endArrow=none;html=1;rounded=0;entryX=0;entryY=0.5;entryDx=0;entryDy=0;entryPerimeter=0;strokeWidth=4;" parent="1" edge="1">
          <mxGeometry width="50" height="50" relative="1" as="geometry">
            <mxPoint x="1180" y="160.8" as="sourcePoint" />
            <mxPoint x="1200" y="160.8" as="targetPoint" />
          </mxGeometry>
        </mxCell>
        <mxCell id="eMgMhVM8UDw18_eJGZku-62" value="" style="endArrow=none;html=1;rounded=0;strokeWidth=4;" parent="1" source="eMgMhVM8UDw18_eJGZku-65" edge="1">
          <mxGeometry width="50" height="50" relative="1" as="geometry">
            <mxPoint x="1019.9" y="161" as="sourcePoint" />
            <mxPoint x="1019.9" y="121" as="targetPoint" />
          </mxGeometry>
        </mxCell>
        <mxCell id="eMgMhVM8UDw18_eJGZku-63" value="" style="endArrow=none;html=1;rounded=0;strokeWidth=4;" parent="1" edge="1">
          <mxGeometry width="50" height="50" relative="1" as="geometry">
            <mxPoint x="840" y="361" as="sourcePoint" />
            <mxPoint x="840" y="281" as="targetPoint" />
          </mxGeometry>
        </mxCell>
        <mxCell id="eMgMhVM8UDw18_eJGZku-64" value="" style="endArrow=none;html=1;rounded=0;strokeWidth=4;" parent="1" edge="1">
          <mxGeometry width="50" height="50" relative="1" as="geometry">
            <mxPoint x="1200" y="361" as="sourcePoint" />
            <mxPoint x="1200" y="281" as="targetPoint" />
          </mxGeometry>
        </mxCell>
        <mxCell id="eMgMhVM8UDw18_eJGZku-65" value="" style="shape=waypoint;sketch=0;fillStyle=solid;size=6;pointerEvents=1;points=[];fillColor=none;resizable=0;rotatable=0;perimeter=centerPerimeter;snapToPoint=1;strokeWidth=4;" parent="1" vertex="1">
          <mxGeometry x="1009.9" y="151" width="20" height="20" as="geometry" />
        </mxCell>
        <mxCell id="eMgMhVM8UDw18_eJGZku-66" value="" style="shape=waypoint;sketch=0;fillStyle=solid;size=6;pointerEvents=1;points=[];fillColor=none;resizable=0;rotatable=0;perimeter=centerPerimeter;snapToPoint=1;strokeWidth=4;" parent="1" vertex="1">
          <mxGeometry x="830" y="271" width="20" height="20" as="geometry" />
        </mxCell>
        <mxCell id="eMgMhVM8UDw18_eJGZku-67" value="" style="shape=waypoint;sketch=0;fillStyle=solid;size=6;pointerEvents=1;points=[];fillColor=none;resizable=0;rotatable=0;perimeter=centerPerimeter;snapToPoint=1;strokeWidth=4;" parent="1" vertex="1">
          <mxGeometry x="1190" y="271" width="20" height="20" as="geometry" />
        </mxCell>
        <mxCell id="eMgMhVM8UDw18_eJGZku-68" value="&lt;font style=&quot;font-size: 24px;&quot;&gt;$$C_0$$&lt;/font&gt;" style="text;html=1;align=center;verticalAlign=middle;whiteSpace=wrap;rounded=0;" parent="1" vertex="1">
          <mxGeometry x="880" y="201" width="60" height="30" as="geometry" />
        </mxCell>
        <mxCell id="eMgMhVM8UDw18_eJGZku-69" value="&lt;font style=&quot;font-size: 24px;&quot;&gt;$$C_0$$&lt;/font&gt;" style="text;html=1;align=center;verticalAlign=middle;whiteSpace=wrap;rounded=0;" parent="1" vertex="1">
          <mxGeometry x="1100" y="201" width="60" height="30" as="geometry" />
        </mxCell>
        <mxCell id="eMgMhVM8UDw18_eJGZku-70" value="&lt;font style=&quot;font-size: 24px;&quot;&gt;$$C_1$$&lt;/font&gt;" style="text;html=1;align=center;verticalAlign=middle;whiteSpace=wrap;rounded=0;" parent="1" vertex="1">
          <mxGeometry x="989.9" y="320" width="60" height="30" as="geometry" />
        </mxCell>
        <mxCell id="eMgMhVM8UDw18_eJGZku-71" value="&lt;font style=&quot;font-size: 24px;&quot;&gt;$$I_{a}$$&lt;/font&gt;" style="text;html=1;align=center;verticalAlign=middle;whiteSpace=wrap;rounded=0;" parent="1" vertex="1">
          <mxGeometry x="860" y="366" width="60" height="30" as="geometry" />
        </mxCell>
        <mxCell id="eMgMhVM8UDw18_eJGZku-72" value="&lt;font style=&quot;font-size: 24px;&quot;&gt;$$V_{CM}$$&lt;/font&gt;" style="text;html=1;align=center;verticalAlign=middle;whiteSpace=wrap;rounded=0;" parent="1" vertex="1">
          <mxGeometry x="1020" y="91" width="60" height="30" as="geometry" />
        </mxCell>
        <mxCell id="eMgMhVM8UDw18_eJGZku-73" value="&lt;font style=&quot;font-size: 24px;&quot;&gt;$$I_{b}$$&lt;/font&gt;" style="text;html=1;align=center;verticalAlign=middle;whiteSpace=wrap;rounded=0;" parent="1" vertex="1">
          <mxGeometry x="1125" y="366" width="60" height="30" as="geometry" />
        </mxCell>
        <mxCell id="eMgMhVM8UDw18_eJGZku-76" value="" style="pointerEvents=1;verticalLabelPosition=bottom;shadow=0;dashed=0;align=center;html=1;verticalAlign=top;shape=mxgraph.electrical.signal_sources.signal_ground;strokeWidth=4;" parent="1" vertex="1">
          <mxGeometry x="1185" y="441" width="30" height="30" as="geometry" />
        </mxCell>
        <mxCell id="eMgMhVM8UDw18_eJGZku-77" value="" style="endArrow=none;html=1;rounded=0;strokeWidth=4;" parent="1" edge="1">
          <mxGeometry width="50" height="50" relative="1" as="geometry">
            <mxPoint x="1199.94" y="441" as="sourcePoint" />
            <mxPoint x="1199.94" y="402" as="targetPoint" />
          </mxGeometry>
        </mxCell>
        <mxCell id="eMgMhVM8UDw18_eJGZku-78" value="" style="endArrow=none;html=1;rounded=0;strokeWidth=4;" parent="1" source="eMgMhVM8UDw18_eJGZku-80" edge="1">
          <mxGeometry width="50" height="50" relative="1" as="geometry">
            <mxPoint x="839.71" y="441" as="sourcePoint" />
            <mxPoint x="839.71" y="402" as="targetPoint" />
          </mxGeometry>
        </mxCell>
        <mxCell id="eMgMhVM8UDw18_eJGZku-79" value="" style="endArrow=none;html=1;rounded=0;strokeWidth=4;" parent="1" target="eMgMhVM8UDw18_eJGZku-80" edge="1">
          <mxGeometry width="50" height="50" relative="1" as="geometry">
            <mxPoint x="839.71" y="441" as="sourcePoint" />
            <mxPoint x="839.71" y="402" as="targetPoint" />
          </mxGeometry>
        </mxCell>
        <mxCell id="eMgMhVM8UDw18_eJGZku-80" value="" style="pointerEvents=1;verticalLabelPosition=bottom;shadow=0;dashed=0;align=center;html=1;verticalAlign=top;shape=mxgraph.electrical.signal_sources.signal_ground;strokeWidth=4;" parent="1" vertex="1">
          <mxGeometry x="825" y="441" width="30" height="30" as="geometry" />
        </mxCell>
        <mxCell id="eMgMhVM8UDw18_eJGZku-82" value="" style="pointerEvents=1;verticalLabelPosition=bottom;shadow=0;dashed=0;align=center;html=1;verticalAlign=top;shape=mxgraph.electrical.signal_sources.source;aspect=fixed;points=[[0.5,0,0],[1,0.5,0],[0.5,1,0],[0,0.5,0]];elSignalType=dc2;strokeWidth=4;" parent="1" vertex="1">
          <mxGeometry x="820" y="361" width="40" height="40" as="geometry" />
        </mxCell>
        <mxCell id="eMgMhVM8UDw18_eJGZku-83" value="" style="pointerEvents=1;verticalLabelPosition=bottom;shadow=0;dashed=0;align=center;html=1;verticalAlign=top;shape=mxgraph.electrical.signal_sources.source;aspect=fixed;points=[[0.5,0,0],[1,0.5,0],[0.5,1,0],[0,0.5,0]];elSignalType=dc2;strokeWidth=4;" parent="1" vertex="1">
          <mxGeometry x="1180" y="361" width="40" height="40" as="geometry" />
        </mxCell>
        <mxCell id="eMgMhVM8UDw18_eJGZku-84" value="&lt;font style=&quot;font-size: 24px;&quot;&gt;$$V_{a}$$&lt;/font&gt;" style="text;html=1;align=center;verticalAlign=middle;whiteSpace=wrap;rounded=0;" parent="1" vertex="1">
          <mxGeometry x="777" y="272" width="60" height="30" as="geometry" />
        </mxCell>
        <mxCell id="eMgMhVM8UDw18_eJGZku-85" value="&lt;font style=&quot;font-size: 24px;&quot;&gt;$$V_{b}$$&lt;/font&gt;" style="text;html=1;align=center;verticalAlign=middle;whiteSpace=wrap;rounded=0;" parent="1" vertex="1">
          <mxGeometry x="1210" y="271" width="60" height="30" as="geometry" />
        </mxCell>
        <mxCell id="eMgMhVM8UDw18_eJGZku-90" value="" style="endArrow=oval;html=1;rounded=0;strokeWidth=5;fillColor=#f8cecc;strokeColor=#b85450;startArrow=oval;startFill=1;endFill=1;endSize=10;startSize=5;" parent="1" edge="1">
          <mxGeometry width="50" height="50" relative="1" as="geometry">
            <mxPoint x="285" y="686" as="sourcePoint" />
            <mxPoint x="645" y="576" as="targetPoint" />
          </mxGeometry>
        </mxCell>
        <mxCell id="eMgMhVM8UDw18_eJGZku-91" value="" style="endArrow=oval;html=1;rounded=0;strokeWidth=5;fillColor=#d5e8d4;strokeColor=#82b366;startArrow=oval;startFill=1;endFill=1;startSize=5;endSize=10;" parent="1" edge="1">
          <mxGeometry width="50" height="50" relative="1" as="geometry">
            <mxPoint x="285" y="766" as="sourcePoint" />
            <mxPoint x="645" y="656" as="targetPoint" />
          </mxGeometry>
        </mxCell>
        <mxCell id="eMgMhVM8UDw18_eJGZku-92" value="" style="endArrow=blockThin;html=1;rounded=0;endFill=1;strokeWidth=3;" parent="1" edge="1">
          <mxGeometry width="50" height="50" relative="1" as="geometry">
            <mxPoint x="225" y="840" as="sourcePoint" />
            <mxPoint x="725" y="840" as="targetPoint" />
          </mxGeometry>
        </mxCell>
        <mxCell id="eMgMhVM8UDw18_eJGZku-93" value="" style="endArrow=blockThin;html=1;rounded=0;endFill=1;strokeWidth=3;" parent="1" edge="1">
          <mxGeometry width="50" height="50" relative="1" as="geometry">
            <mxPoint x="245" y="860" as="sourcePoint" />
            <mxPoint x="245" y="566" as="targetPoint" />
          </mxGeometry>
        </mxCell>
        <mxCell id="eMgMhVM8UDw18_eJGZku-94" value="&lt;font style=&quot;font-size: 24px;&quot;&gt;$$V_{a0}$$&lt;/font&gt;" style="text;html=1;align=center;verticalAlign=middle;whiteSpace=wrap;rounded=0;" parent="1" vertex="1">
          <mxGeometry x="245" y="640" width="60" height="30" as="geometry" />
        </mxCell>
        <mxCell id="eMgMhVM8UDw18_eJGZku-95" value="&lt;font style=&quot;font-size: 24px;&quot;&gt;$$V_{b0}$$&lt;/font&gt;" style="text;html=1;align=center;verticalAlign=middle;whiteSpace=wrap;rounded=0;" parent="1" vertex="1">
          <mxGeometry x="265" y="780" width="60" height="30" as="geometry" />
        </mxCell>
        <mxCell id="eMgMhVM8UDw18_eJGZku-96" value="&lt;font style=&quot;font-size: 24px;&quot;&gt;$$V_{a}$$&lt;/font&gt;" style="text;html=1;align=center;verticalAlign=middle;whiteSpace=wrap;rounded=0;" parent="1" vertex="1">
          <mxGeometry x="615" y="530" width="60" height="30" as="geometry" />
        </mxCell>
        <mxCell id="eMgMhVM8UDw18_eJGZku-97" value="&lt;font style=&quot;font-size: 24px;&quot;&gt;$$V_{b}$$&lt;/font&gt;" style="text;html=1;align=center;verticalAlign=middle;whiteSpace=wrap;rounded=0;" parent="1" vertex="1">
          <mxGeometry x="620" y="680" width="60" height="30" as="geometry" />
        </mxCell>
        <mxCell id="eMgMhVM8UDw18_eJGZku-98" value="" style="endArrow=blockThin;startArrow=blockThin;html=1;rounded=0;endFill=1;startFill=1;strokeWidth=3;fillColor=#e1d5e7;strokeColor=#9673a6;" parent="1" edge="1">
          <mxGeometry width="50" height="50" relative="1" as="geometry">
            <mxPoint x="285" y="760" as="sourcePoint" />
            <mxPoint x="285" y="690" as="targetPoint" />
          </mxGeometry>
        </mxCell>
        <mxCell id="eMgMhVM8UDw18_eJGZku-99" value="" style="endArrow=blockThin;startArrow=blockThin;html=1;rounded=0;endFill=1;startFill=1;strokeWidth=3;fillColor=#e1d5e7;strokeColor=#9673a6;" parent="1" edge="1">
          <mxGeometry width="50" height="50" relative="1" as="geometry">
            <mxPoint x="645" y="650" as="sourcePoint" />
            <mxPoint x="645" y="580" as="targetPoint" />
          </mxGeometry>
        </mxCell>
        <mxCell id="eMgMhVM8UDw18_eJGZku-100" value="&lt;font style=&quot;font-size: 24px;&quot;&gt;$$t$$&lt;/font&gt;" style="text;html=1;align=center;verticalAlign=middle;whiteSpace=wrap;rounded=0;" parent="1" vertex="1">
          <mxGeometry x="675" y="850" width="60" height="30" as="geometry" />
        </mxCell>
        <mxCell id="eMgMhVM8UDw18_eJGZku-101" value="" style="pointerEvents=1;verticalLabelPosition=bottom;shadow=0;dashed=0;align=center;html=1;verticalAlign=top;shape=mxgraph.electrical.capacitors.capacitor_1;strokeWidth=4;" parent="1" vertex="1">
          <mxGeometry x="983" y="570" width="100" height="60" as="geometry" />
        </mxCell>
        <mxCell id="eMgMhVM8UDw18_eJGZku-102" value="" style="endArrow=none;html=1;rounded=0;entryX=0;entryY=0.5;entryDx=0;entryDy=0;entryPerimeter=0;exitX=0.9;exitY=0.5;exitDx=0;exitDy=0;exitPerimeter=0;strokeWidth=4;" parent="1" edge="1">
          <mxGeometry width="50" height="50" relative="1" as="geometry">
            <mxPoint x="1083" y="599.97" as="sourcePoint" />
            <mxPoint x="1213" y="599.97" as="targetPoint" />
          </mxGeometry>
        </mxCell>
        <mxCell id="eMgMhVM8UDw18_eJGZku-103" value="" style="endArrow=none;html=1;rounded=0;entryX=0;entryY=0.5;entryDx=0;entryDy=0;entryPerimeter=0;exitX=0.9;exitY=0.5;exitDx=0;exitDy=0;exitPerimeter=0;strokeWidth=4;" parent="1" edge="1">
          <mxGeometry width="50" height="50" relative="1" as="geometry">
            <mxPoint x="853" y="599.94" as="sourcePoint" />
            <mxPoint x="983" y="599.94" as="targetPoint" />
          </mxGeometry>
        </mxCell>
        <mxCell id="eMgMhVM8UDw18_eJGZku-106" value="" style="shape=waypoint;sketch=0;fillStyle=solid;size=6;pointerEvents=1;points=[];fillColor=none;resizable=0;rotatable=0;perimeter=centerPerimeter;snapToPoint=1;strokeWidth=4;" parent="1" vertex="1">
          <mxGeometry x="843" y="590" width="20" height="20" as="geometry" />
        </mxCell>
        <mxCell id="eMgMhVM8UDw18_eJGZku-107" value="" style="shape=waypoint;sketch=0;fillStyle=solid;size=6;pointerEvents=1;points=[];fillColor=none;resizable=0;rotatable=0;perimeter=centerPerimeter;snapToPoint=1;strokeWidth=4;" parent="1" vertex="1">
          <mxGeometry x="1203" y="590" width="20" height="20" as="geometry" />
        </mxCell>
        <mxCell id="eMgMhVM8UDw18_eJGZku-108" value="&lt;font style=&quot;font-size: 24px;&quot;&gt;$$C_1$$&lt;/font&gt;" style="text;html=1;align=center;verticalAlign=middle;whiteSpace=wrap;rounded=0;" parent="1" vertex="1">
          <mxGeometry x="1002.9" y="639" width="60" height="30" as="geometry" />
        </mxCell>
        <mxCell id="eMgMhVM8UDw18_eJGZku-109" value="&lt;font style=&quot;font-size: 24px;&quot;&gt;$$V_{a}$$&lt;/font&gt;" style="text;html=1;align=center;verticalAlign=middle;whiteSpace=wrap;rounded=0;" parent="1" vertex="1">
          <mxGeometry x="790" y="591" width="60" height="30" as="geometry" />
        </mxCell>
        <mxCell id="eMgMhVM8UDw18_eJGZku-110" value="&lt;font style=&quot;font-size: 24px;&quot;&gt;$$V_{b}$$&lt;/font&gt;" style="text;html=1;align=center;verticalAlign=middle;whiteSpace=wrap;rounded=0;" parent="1" vertex="1">
          <mxGeometry x="1223" y="590" width="60" height="30" as="geometry" />
        </mxCell>
        <mxCell id="eMgMhVM8UDw18_eJGZku-111" value="" style="pointerEvents=1;verticalLabelPosition=bottom;shadow=0;dashed=0;align=center;html=1;verticalAlign=top;shape=mxgraph.electrical.capacitors.capacitor_1;strokeWidth=4;" parent="1" vertex="1">
          <mxGeometry x="909.9" y="762" width="100" height="60" as="geometry" />
        </mxCell>
        <mxCell id="eMgMhVM8UDw18_eJGZku-112" value="" style="endArrow=none;html=1;rounded=0;strokeWidth=4;exitX=0.993;exitY=0.5;exitDx=0;exitDy=0;exitPerimeter=0;" parent="1" source="eMgMhVM8UDw18_eJGZku-122" target="eMgMhVM8UDw18_eJGZku-115" edge="1">
          <mxGeometry width="50" height="50" relative="1" as="geometry">
            <mxPoint x="1180" y="791.95" as="sourcePoint" />
            <mxPoint x="1230" y="791.95" as="targetPoint" />
          </mxGeometry>
        </mxCell>
        <mxCell id="eMgMhVM8UDw18_eJGZku-113" value="" style="endArrow=none;html=1;rounded=0;exitX=0.9;exitY=0.5;exitDx=0;exitDy=0;exitPerimeter=0;strokeWidth=4;" parent="1" edge="1">
          <mxGeometry width="50" height="50" relative="1" as="geometry">
            <mxPoint x="853" y="791.94" as="sourcePoint" />
            <mxPoint x="910" y="792" as="targetPoint" />
          </mxGeometry>
        </mxCell>
        <mxCell id="eMgMhVM8UDw18_eJGZku-114" value="" style="shape=waypoint;sketch=0;fillStyle=solid;size=6;pointerEvents=1;points=[];fillColor=none;resizable=0;rotatable=0;perimeter=centerPerimeter;snapToPoint=1;strokeWidth=4;" parent="1" vertex="1">
          <mxGeometry x="843" y="782" width="20" height="20" as="geometry" />
        </mxCell>
        <mxCell id="eMgMhVM8UDw18_eJGZku-115" value="" style="shape=waypoint;sketch=0;fillStyle=solid;size=6;pointerEvents=1;points=[];fillColor=none;resizable=0;rotatable=0;perimeter=centerPerimeter;snapToPoint=1;strokeWidth=4;" parent="1" vertex="1">
          <mxGeometry x="1200" y="782" width="20" height="20" as="geometry" />
        </mxCell>
        <mxCell id="eMgMhVM8UDw18_eJGZku-116" value="&lt;font style=&quot;font-size: 24px;&quot;&gt;$$2C_1$$&lt;/font&gt;" style="text;html=1;align=center;verticalAlign=middle;whiteSpace=wrap;rounded=0;" parent="1" vertex="1">
          <mxGeometry x="929.9" y="831" width="60" height="30" as="geometry" />
        </mxCell>
        <mxCell id="eMgMhVM8UDw18_eJGZku-117" value="&lt;font style=&quot;font-size: 24px;&quot;&gt;$$V_{a}$$&lt;/font&gt;" style="text;html=1;align=center;verticalAlign=middle;whiteSpace=wrap;rounded=0;" parent="1" vertex="1">
          <mxGeometry x="790" y="781" width="60" height="30" as="geometry" />
        </mxCell>
        <mxCell id="eMgMhVM8UDw18_eJGZku-118" value="&lt;font style=&quot;font-size: 24px;&quot;&gt;$$V_{b}$$&lt;/font&gt;" style="text;html=1;align=center;verticalAlign=middle;whiteSpace=wrap;rounded=0;" parent="1" vertex="1">
          <mxGeometry x="1223" y="777" width="60" height="30" as="geometry" />
        </mxCell>
        <mxCell id="eMgMhVM8UDw18_eJGZku-122" value="" style="pointerEvents=1;verticalLabelPosition=bottom;shadow=0;dashed=0;align=center;html=1;verticalAlign=top;shape=mxgraph.electrical.capacitors.capacitor_1;strokeWidth=4;" parent="1" vertex="1">
          <mxGeometry x="1070" y="762" width="100" height="60" as="geometry" />
        </mxCell>
        <mxCell id="eMgMhVM8UDw18_eJGZku-124" value="&lt;font style=&quot;font-size: 24px;&quot;&gt;$$2C_1$$&lt;/font&gt;" style="text;html=1;align=center;verticalAlign=middle;whiteSpace=wrap;rounded=0;" parent="1" vertex="1">
          <mxGeometry x="1100" y="831" width="60" height="30" as="geometry" />
        </mxCell>
        <mxCell id="eMgMhVM8UDw18_eJGZku-125" value="" style="endArrow=none;html=1;rounded=0;strokeWidth=4;exitDx=0;exitDy=0;exitPerimeter=0;" parent="1" source="eMgMhVM8UDw18_eJGZku-133" edge="1">
          <mxGeometry width="50" height="50" relative="1" as="geometry">
            <mxPoint x="1002.9" y="791.94" as="sourcePoint" />
            <mxPoint x="1080" y="791.94" as="targetPoint" />
          </mxGeometry>
        </mxCell>
        <mxCell id="eMgMhVM8UDw18_eJGZku-127" value="" style="endArrow=none;html=1;rounded=0;strokeWidth=6;" parent="1" edge="1">
          <mxGeometry width="50" height="50" relative="1" as="geometry">
            <mxPoint x="1026.35" y="730" as="sourcePoint" />
            <mxPoint x="1026.35" y="690" as="targetPoint" />
          </mxGeometry>
        </mxCell>
        <mxCell id="eMgMhVM8UDw18_eJGZku-128" value="" style="endArrow=none;html=1;rounded=0;strokeWidth=6;" parent="1" edge="1">
          <mxGeometry width="50" height="50" relative="1" as="geometry">
            <mxPoint x="1049.25" y="730" as="sourcePoint" />
            <mxPoint x="1049.25" y="690" as="targetPoint" />
          </mxGeometry>
        </mxCell>
        <mxCell id="eMgMhVM8UDw18_eJGZku-131" value="" style="endArrow=blockThin;html=1;rounded=0;endFill=1;endSize=6;strokeWidth=4;fillColor=#a20025;strokeColor=#6F0000;" parent="1" edge="1">
          <mxGeometry width="50" height="50" relative="1" as="geometry">
            <mxPoint x="1020" y="860" as="sourcePoint" />
            <mxPoint x="1030" y="810" as="targetPoint" />
          </mxGeometry>
        </mxCell>
        <mxCell id="eMgMhVM8UDw18_eJGZku-132" value="&lt;font color=&quot;#ff0000&quot;&gt;&lt;span style=&quot;font-size: 20px;&quot;&gt;&lt;b&gt;$$\frac{V_a+V_b}{2}$$&lt;/b&gt;&lt;/span&gt;&lt;/font&gt;" style="text;html=1;align=center;verticalAlign=middle;whiteSpace=wrap;rounded=0;" parent="1" vertex="1">
          <mxGeometry x="927.9" y="880" width="210" height="30" as="geometry" />
        </mxCell>
        <mxCell id="eMgMhVM8UDw18_eJGZku-134" value="" style="endArrow=none;html=1;rounded=0;strokeWidth=4;exitX=0.993;exitY=0.5;exitDx=0;exitDy=0;exitPerimeter=0;" parent="1" target="eMgMhVM8UDw18_eJGZku-133" edge="1">
          <mxGeometry width="50" height="50" relative="1" as="geometry">
            <mxPoint x="1002.9" y="791.94" as="sourcePoint" />
            <mxPoint x="1080" y="791.94" as="targetPoint" />
          </mxGeometry>
        </mxCell>
        <mxCell id="eMgMhVM8UDw18_eJGZku-133" value="" style="shape=waypoint;sketch=0;fillStyle=solid;size=6;pointerEvents=1;points=[];fillColor=#a20025;resizable=0;rotatable=0;perimeter=centerPerimeter;snapToPoint=1;strokeWidth=4;strokeColor=#6F0000;fontColor=#ffffff;" parent="1" vertex="1">
          <mxGeometry x="1029.9" y="782" width="20" height="20" as="geometry" />
        </mxCell>
      </root>
    </mxGraphModel>
  </diagram>
</mxfile>
